<?xml version="1.0" encoding="utf-8"?>
<svg id="master-artboard" viewBox="0 0 492.1739807128906 211.08700561523438" version="1.1" xmlns="http://www.w3.org/2000/svg" x="0px" y="0px" style="enable-background:new 0 0 1400 980;" width="492.1739807128906px" height="211.08700561523438px"><defs><style id="ee-google-fonts">@import url(https://fonts.googleapis.com/css?family=Audiowide:400);</style></defs><rect id="ee-background" x="0" y="0" width="492.1739807128906" height="211.08700561523438" style="fill: white; fill-opacity: 1; pointer-events: none;"/>

<path d="M 421.5599670410156 258.9800109863281 L 399.0799560546875 258.9800109863281 L 399.0799560546875 251.80999755859375 L 421.5599670410156 251.80999755859375 L 421.5599670410156 258.9800109863281 M 424.72998046875 242.89999389648438 L 396.2399597167969 242.89999389648438 L 396.2399597167969 275 L 389.1299743652344 275 L 389.1299743652344 239.3699951171875 C 389.1299743652344 238.8766632080078 389.219970703125 238.413330078125 389.39996337890625 237.97999572753906 C 389.5866394042969 237.54000854492188 389.8366394042969 237.1566619873047 390.14996337890625 236.8300018310547 C 390.469970703125 236.50332641601562 390.8499755859375 236.24667358398438 391.28997802734375 236.05999755859375 C 391.72998046875 235.8800048828125 392.20330810546875 235.79000854492188 392.7099609375 235.79000854492188 L 424.72998046875 235.79000854492188 L 424.72998046875 242.89999389648438 ZM 471.3669128417969 259.1400146484375 C 471.3669128417969 261.52667236328125 470.9569091796875 263.72332763671875 470.13690185546875 265.7300109863281 C 469.3169250488281 267.7366638183594 468.1769104003906 269.4700012207031 466.7169189453125 270.92999267578125 C 465.2635803222656 272.3833312988281 463.53692626953125 273.51666259765625 461.53692626953125 274.3299865722656 C 459.5435791015625 275.1433410644531 457.3702392578125 275.54998779296875 455.01690673828125 275.54998779296875 L 445.38690185546875 275.54998779296875 C 443.0402526855469 275.54998779296875 440.86358642578125 275.1433410644531 438.8569030761719 274.3299865722656 C 436.8502502441406 273.51666259765625 435.1169128417969 272.3833312988281 433.65692138671875 270.92999267578125 C 432.2035827636719 269.4700012207031 431.06024169921875 267.7366638183594 430.2269287109375 265.7300109863281 C 429.4002380371094 263.72332763671875 428.9869079589844 261.52667236328125 428.9869079589844 259.1400146484375 L 428.9869079589844 251.64999389648438 C 428.9869079589844 249.27667236328125 429.4002380371094 247.0833282470703 430.2269287109375 245.07000732421875 C 431.06024169921875 243.05667114257812 432.2035827636719 241.32666015625 433.65692138671875 239.8800048828125 C 435.1169128417969 238.42666625976562 436.8502502441406 237.29000854492188 438.8569030761719 236.47000122070312 C 440.86358642578125 235.64999389648438 443.0402526855469 235.24000549316406 445.38690185546875 235.24000549316406 L 455.01690673828125 235.24000549316406 C 457.3702392578125 235.24000549316406 459.5435791015625 235.64999389648438 461.53692626953125 236.47000122070312 C 463.53692626953125 237.29000854492188 465.2635803222656 238.42666625976562 466.7169189453125 239.8800048828125 C 468.1769104003906 241.32666015625 469.3169250488281 243.05667114257812 470.13690185546875 245.07000732421875 C 470.9569091796875 247.0833282470703 471.3669128417969 249.27667236328125 471.3669128417969 251.64999389648438 L 471.3669128417969 259.1400146484375 M 464.25689697265625 251.64999389648438 C 464.25689697265625 250.2433319091797 464.0335693359375 248.97000122070312 463.5869140625 247.8300018310547 C 463.1402587890625 246.69000244140625 462.5135803222656 245.7166748046875 461.7069091796875 244.91000366210938 C 460.8935852050781 244.09666442871094 459.91693115234375 243.4666748046875 458.77691650390625 243.02000427246094 C 457.63690185546875 242.57333374023438 456.3835754394531 242.35000610351562 455.01690673828125 242.35000610351562 L 445.38690185546875 242.35000610351562 C 444.0069274902344 242.35000610351562 442.7469177246094 242.57333374023438 441.6069030761719 243.02000427246094 C 440.4669189453125 243.4666748046875 439.4869079589844 244.09666442871094 438.6669006347656 244.91000366210938 C 437.846923828125 245.7166748046875 437.2135925292969 246.69000244140625 436.76690673828125 247.8300018310547 C 436.32025146484375 248.97000122070312 436.096923828125 250.2433319091797 436.096923828125 251.64999389648438 L 436.096923828125 259.1400146484375 C 436.096923828125 260.5466613769531 436.32025146484375 261.82000732421875 436.76690673828125 262.9599914550781 C 437.2135925292969 264.09332275390625 437.846923828125 265.0666809082031 438.6669006347656 265.8800048828125 C 439.4869079589844 266.6933288574219 440.4669189453125 267.3233337402344 441.6069030761719 267.7699890136719 C 442.7469177246094 268.2166748046875 444.0069274902344 268.44000244140625 445.38690185546875 268.44000244140625 L 454.9669189453125 268.44000244140625 C 456.346923828125 268.44000244140625 457.6069030761719 268.2166748046875 458.7469177246094 267.7699890136719 C 459.88690185546875 267.3233337402344 460.8669128417969 266.6933288574219 461.6869201660156 265.8800048828125 C 462.50689697265625 265.0666809082031 463.1402587890625 264.09332275390625 463.5869140625 262.9599914550781 C 464.0335693359375 261.82000732421875 464.25689697265625 260.5466613769531 464.25689697265625 259.1400146484375 L 464.25689697265625 251.64999389648438 ZM 519.5462646484375 259.1400146484375 C 519.5462646484375 261.52667236328125 519.1362915039062 263.72332763671875 518.3162841796875 265.7300109863281 C 517.4962768554688 267.7366638183594 516.3562622070312 269.4700012207031 514.896240234375 270.92999267578125 C 513.4429321289062 272.3833312988281 511.7162780761719 273.51666259765625 509.7162780761719 274.3299865722656 C 507.7229309082031 275.1433410644531 505.5495910644531 275.54998779296875 503.1962585449219 275.54998779296875 L 493.5662536621094 275.54998779296875 C 491.2196044921875 275.54998779296875 489.0429382324219 275.1433410644531 487.0362548828125 274.3299865722656 C 485.02960205078125 273.51666259765625 483.2962646484375 272.3833312988281 481.8362731933594 270.92999267578125 C 480.3829345703125 269.4700012207031 479.2395935058594 267.7366638183594 478.4062805175781 265.7300109863281 C 477.57958984375 263.72332763671875 477.166259765625 261.52667236328125 477.166259765625 259.1400146484375 L 477.166259765625 251.64999389648438 C 477.166259765625 249.27667236328125 477.57958984375 247.0833282470703 478.4062805175781 245.07000732421875 C 479.2395935058594 243.05667114257812 480.3829345703125 241.32666015625 481.8362731933594 239.8800048828125 C 483.2962646484375 238.42666625976562 485.02960205078125 237.29000854492188 487.0362548828125 236.47000122070312 C 489.0429382324219 235.64999389648438 491.2196044921875 235.24000549316406 493.5662536621094 235.24000549316406 L 503.1962585449219 235.24000549316406 C 505.5495910644531 235.24000549316406 507.7229309082031 235.64999389648438 509.7162780761719 236.47000122070312 C 511.7162780761719 237.29000854492188 513.4429321289062 238.42666625976562 514.896240234375 239.8800048828125 C 516.3562622070312 241.32666015625 517.4962768554688 243.05667114257812 518.3162841796875 245.07000732421875 C 519.1362915039062 247.0833282470703 519.5462646484375 249.27667236328125 519.5462646484375 251.64999389648438 L 519.5462646484375 259.1400146484375 M 512.436279296875 251.64999389648438 C 512.436279296875 250.2433319091797 512.2129516601562 248.97000122070312 511.7662658691406 247.8300018310547 C 511.3196105957031 246.69000244140625 510.69293212890625 245.7166748046875 509.8862609863281 244.91000366210938 C 509.07293701171875 244.09666442871094 508.09625244140625 243.4666748046875 506.9562683105469 243.02000427246094 C 505.8162536621094 242.57333374023438 504.56292724609375 242.35000610351562 503.1962585449219 242.35000610351562 L 493.5662536621094 242.35000610351562 C 492.186279296875 242.35000610351562 490.92626953125 242.57333374023438 489.7862548828125 243.02000427246094 C 488.6462707519531 243.4666748046875 487.666259765625 244.09666442871094 486.84625244140625 244.91000366210938 C 486.0262756347656 245.7166748046875 485.3929443359375 246.69000244140625 484.9462585449219 247.8300018310547 C 484.4996032714844 248.97000122070312 484.2762756347656 250.2433319091797 484.2762756347656 251.64999389648438 L 484.2762756347656 259.1400146484375 C 484.2762756347656 260.5466613769531 484.4996032714844 261.82000732421875 484.9462585449219 262.9599914550781 C 485.3929443359375 264.09332275390625 486.0262756347656 265.0666809082031 486.84625244140625 265.8800048828125 C 487.666259765625 266.6933288574219 488.6462707519531 267.3233337402344 489.7862548828125 267.7699890136719 C 490.92626953125 268.2166748046875 492.186279296875 268.44000244140625 493.5662536621094 268.44000244140625 L 503.1462707519531 268.44000244140625 C 504.5262756347656 268.44000244140625 505.7862548828125 268.2166748046875 506.92626953125 267.7699890136719 C 508.0662536621094 267.3233337402344 509.0462646484375 266.6933288574219 509.86627197265625 265.8800048828125 C 510.686279296875 265.0666809082031 511.3196105957031 264.09332275390625 511.7662658691406 262.9599914550781 C 512.2129516601562 261.82000732421875 512.436279296875 260.5466613769531 512.436279296875 259.1400146484375 L 512.436279296875 251.64999389648438 ZM 559.005615234375 258.9800109863281 L 536.525634765625 258.9800109863281 L 536.525634765625 251.80999755859375 L 559.005615234375 251.80999755859375 L 559.005615234375 258.9800109863281 M 562.1755981445312 242.89999389648438 L 533.6856079101562 242.89999389648438 L 533.6856079101562 275 L 526.5756225585938 275 L 526.5756225585938 239.3699951171875 C 526.5756225585938 238.8766632080078 526.6655883789062 238.413330078125 526.8456420898438 237.97999572753906 C 527.0322875976562 237.54000854492188 527.2822875976562 237.1566619873047 527.5956420898438 236.8300018310547 C 527.9155883789062 236.50332641601562 528.2955932617188 236.24667358398438 528.735595703125 236.05999755859375 C 529.1755981445312 235.8800048828125 529.64892578125 235.79000854492188 530.1556396484375 235.79000854492188 L 562.1755981445312 235.79000854492188 L 562.1755981445312 242.89999389648438 ZM 571.3046264648438 271.4200134277344 C 571.3046264648438 271.913330078125 571.2079467773438 272.3733215332031 571.0145874023438 272.79998779296875 C 570.8279418945312 273.2266540527344 570.5745849609375 273.6000061035156 570.2545776367188 273.9200134277344 C 569.9346313476562 274.239990234375 569.561279296875 274.489990234375 569.1345825195312 274.6700134277344 C 568.7012939453125 274.8566589355469 568.2479248046875 274.95001220703125 567.7745971679688 274.95001220703125 C 567.28125 274.95001220703125 566.8212890625 274.8566589355469 566.3945922851562 274.6700134277344 C 565.9679565429688 274.489990234375 565.5946044921875 274.239990234375 565.2745971679688 273.9200134277344 C 564.95458984375 273.6000061035156 564.70458984375 273.2266540527344 564.5245971679688 272.79998779296875 C 564.3379516601562 272.3733215332031 564.24462890625 271.913330078125 564.24462890625 271.4200134277344 C 564.24462890625 270.9466552734375 564.3379516601562 270.49334716796875 564.5245971679688 270.05999755859375 C 564.70458984375 269.6333312988281 564.95458984375 269.260009765625 565.2745971679688 268.94000244140625 C 565.5946044921875 268.6199951171875 565.9679565429688 268.3666687011719 566.3945922851562 268.17999267578125 C 566.8212890625 267.9866638183594 567.28125 267.8900146484375 567.7745971679688 267.8900146484375 C 568.2479248046875 267.8900146484375 568.7012939453125 267.9866638183594 569.1345825195312 268.17999267578125 C 569.561279296875 268.3666687011719 569.9346313476562 268.6199951171875 570.2545776367188 268.94000244140625 C 570.5745849609375 269.260009765625 570.8279418945312 269.6333312988281 571.0145874023438 270.05999755859375 C 571.2079467773438 270.49334716796875 571.3046264648438 270.9466552734375 571.3046264648438 271.4200134277344 ZM 615.30859375 263.4599914550781 C 615.30859375 264.8666687011719 615.1319580078125 266.1300048828125 614.778564453125 267.25 C 614.4185791015625 268.3699951171875 613.9486083984375 269.3566589355469 613.3685913085938 270.2099914550781 C 612.7819213867188 271.07000732421875 612.0985717773438 271.79998779296875 611.318603515625 272.3999938964844 C 610.5319213867188 273 609.7186279296875 273.49334716796875 608.8786010742188 273.8800048828125 C 608.0452880859375 274.260009765625 607.1952514648438 274.5433349609375 606.32861328125 274.7300109863281 C 605.4619140625 274.9100036621094 604.645263671875 275 603.8786010742188 275 L 576.4486083984375 275 L 576.4486083984375 267.8900146484375 L 603.8786010742188 267.8900146484375 C 605.2452392578125 267.8900146484375 606.3052368164062 267.489990234375 607.05859375 266.69000244140625 C 607.818603515625 265.8833312988281 608.1986083984375 264.8066711425781 608.1986083984375 263.4599914550781 C 608.1986083984375 262.8066711425781 608.0985717773438 262.2066650390625 607.8986206054688 261.6600036621094 C 607.6986083984375 261.11334228515625 607.4119262695312 260.63665771484375 607.03857421875 260.2300109863281 C 606.665283203125 259.8299865722656 606.2086181640625 259.5199890136719 605.6685791015625 259.29998779296875 C 605.1286010742188 259.086669921875 604.5319213867188 258.9800109863281 603.8786010742188 258.9800109863281 L 587.5286254882812 258.9800109863281 C 586.375244140625 258.9800109863281 585.13525390625 258.7733459472656 583.80859375 258.3599853515625 C 582.4752807617188 257.9533386230469 581.2385864257812 257.2933349609375 580.0985717773438 256.3800048828125 C 578.9586181640625 255.4666748046875 578.0119018554688 254.27333068847656 577.2586059570312 252.8000030517578 C 576.5052490234375 251.32000732421875 576.1286010742188 249.51333618164062 576.1286010742188 247.3800048828125 C 576.1286010742188 245.24667358398438 576.5052490234375 243.44667053222656 577.2586059570312 241.97999572753906 C 578.0119018554688 240.51333618164062 578.9586181640625 239.32000732421875 580.0985717773438 238.39999389648438 C 581.2385864257812 237.47999572753906 582.4752807617188 236.81332397460938 583.80859375 236.39999389648438 C 585.13525390625 235.9933319091797 586.375244140625 235.79000854492188 587.5286254882812 235.79000854492188 L 611.7285766601562 235.79000854492188 L 611.7285766601562 242.89999389648438 L 587.5286254882812 242.89999389648438 C 586.17529296875 242.89999389648438 585.1219482421875 243.30999755859375 584.3685913085938 244.1300048828125 C 583.6085815429688 244.9499969482422 583.2285766601562 246.0333251953125 583.2285766601562 247.3800048828125 C 583.2285766601562 248.74667358398438 583.6085815429688 249.82666015625 584.3685913085938 250.6199951171875 C 585.1219482421875 251.413330078125 586.17529296875 251.80999755859375 587.5286254882812 251.80999755859375 L 603.8786010742188 251.80999755859375 L 603.9285888671875 251.80999755859375 C 604.6952514648438 251.8300018310547 605.5086059570312 251.93666076660156 606.3685913085938 252.1300048828125 C 607.221923828125 252.31666564941406 608.0718994140625 252.6133270263672 608.9185791015625 253.02000427246094 C 609.7719116210938 253.4199981689453 610.57861328125 253.92333984375 611.338623046875 254.52999877929688 C 612.1052856445312 255.14334106445312 612.7852783203125 255.8766632080078 613.3786010742188 256.7300109863281 C 613.971923828125 257.5899963378906 614.4419555664062 258.57666015625 614.78857421875 259.69000244140625 C 615.13525390625 260.8033447265625 615.30859375 262.05999755859375 615.30859375 263.4599914550781 ZM 656.234375 242.89999389648438 L 640.5643920898438 242.89999389648438 L 640.5643920898438 275 L 633.454345703125 275 L 633.454345703125 242.89999389648438 L 617.75439453125 242.89999389648438 L 617.75439453125 235.79000854492188 L 656.234375 235.79000854492188 L 656.234375 242.89999389648438 ZM 698.8032836914062 248.91000366210938 C 698.8032836914062 250.5366668701172 698.5999755859375 251.98666381835938 698.1932983398438 253.25999450683594 C 697.7799682617188 254.54000854492188 697.2366333007812 255.6666717529297 696.5632934570312 256.6400146484375 C 695.8899536132812 257.61334228515625 695.0999755859375 258.4466552734375 694.1932983398438 259.1400146484375 C 693.2933349609375 259.8333435058594 692.3599853515625 260.4033203125 691.393310546875 260.8500061035156 C 690.4266357421875 261.2966613769531 689.4466552734375 261.6199951171875 688.4533081054688 261.82000732421875 C 687.4599609375 262.0199890136719 686.526611328125 262.1199951171875 685.6533203125 262.1199951171875 L 682.7833251953125 262.1199951171875 L 682.7833251953125 275 L 675.61328125 275 L 675.61328125 262.1199951171875 L 672.7733154296875 262.1199951171875 C 671.8999633789062 262.1199951171875 670.9666137695312 262.0199890136719 669.9733276367188 261.82000732421875 C 668.97998046875 261.6199951171875 667.9932861328125 261.2966613769531 667.0133056640625 260.8500061035156 C 666.0399780273438 260.4033203125 665.1066284179688 259.8333435058594 664.2133178710938 259.1400146484375 C 663.3199462890625 258.4466552734375 662.5333251953125 257.61334228515625 661.8533325195312 256.6400146484375 C 661.1666259765625 255.6666717529297 660.6166381835938 254.5366668701172 660.2033081054688 253.25 C 659.796630859375 251.9633331298828 659.5933227539062 250.51666259765625 659.5933227539062 248.91000366210938 L 659.5933227539062 235.79000854492188 L 666.7033081054688 235.79000854492188 L 666.7033081054688 248.91000366210938 C 666.7033081054688 249.8433380126953 666.8499755859375 250.67999267578125 667.143310546875 251.4199981689453 C 667.4299926757812 252.15333557128906 667.8399658203125 252.7866668701172 668.373291015625 253.32000732421875 C 668.8999633789062 253.84666442871094 669.5399780273438 254.25 670.2932739257812 254.52999877929688 C 671.0532836914062 254.81666564941406 671.8966064453125 254.95999145507812 672.8233032226562 254.95999145507812 L 685.6533203125 254.95999145507812 C 686.32666015625 254.84666442871094 687.0199584960938 254.70333862304688 687.7332763671875 254.52999877929688 C 688.43994140625 254.35665893554688 689.0866088867188 254.05999755859375 689.6732788085938 253.63999938964844 C 690.2532958984375 253.22666931152344 690.7366333007812 252.64334106445312 691.123291015625 251.88999938964844 C 691.5032958984375 251.14334106445312 691.6932983398438 250.14999389648438 691.6932983398438 248.91000366210938 L 691.6932983398438 235.79000854492188 L 698.8032836914062 235.79000854492188 L 698.8032836914062 248.91000366210938 ZM 741.2099609375 275 L 708.7799682617188 275 C 708.2732543945312 275 707.7999267578125 274.9100036621094 707.3599243164062 274.7300109863281 C 706.919921875 274.5433349609375 706.5399169921875 274.2900085449219 706.219970703125 273.9700012207031 C 705.9066162109375 273.65667724609375 705.6566162109375 273.2799987792969 705.469970703125 272.8399963378906 C 705.2899169921875 272.3999938964844 705.199951171875 271.9266662597656 705.199951171875 271.4200134277344 L 705.199951171875 235.79000854492188 L 712.3099365234375 235.79000854492188 L 712.3099365234375 267.8900146484375 L 741.2099609375 267.8900146484375 L 741.2099609375 275 ZM 778.52685546875 258.9800109863281 L 756.0768432617188 258.9800109863281 L 756.0768432617188 251.80999755859375 L 778.52685546875 251.80999755859375 L 778.52685546875 258.9800109863281 M 781.7268676757812 275 L 756.0768432617188 275 C 755.0902099609375 275 754.0135498046875 274.82666015625 752.8468627929688 274.4800109863281 C 751.68017578125 274.1333312988281 750.6002197265625 273.5633239746094 749.6068725585938 272.7699890136719 C 748.613525390625 271.9766540527344 747.7835083007812 270.9466552734375 747.1168823242188 269.67999267578125 C 746.4501953125 268.413330078125 746.1168823242188 266.8599853515625 746.1168823242188 265.0199890136719 L 746.1168823242188 239.3699951171875 C 746.1168823242188 238.8766632080078 746.210205078125 238.413330078125 746.3968505859375 237.97999572753906 C 746.5768432617188 237.54000854492188 746.8268432617188 237.1566619873047 747.1468505859375 236.8300018310547 C 747.4668579101562 236.50332641601562 747.8468627929688 236.24667358398438 748.286865234375 236.05999755859375 C 748.72021484375 235.8800048828125 749.1935424804688 235.79000854492188 749.7068481445312 235.79000854492188 L 781.7268676757812 235.79000854492188 L 781.7268676757812 242.89999389648438 L 753.2268676757812 242.89999389648438 L 753.2268676757812 265.0199890136719 C 753.2268676757812 265.9466552734375 753.4735107421875 266.65667724609375 753.9668579101562 267.1499938964844 C 754.460205078125 267.6433410644531 755.18017578125 267.8900146484375 756.1268310546875 267.8900146484375 L 781.7268676757812 267.8900146484375 L 781.7268676757812 275 Z" transform="matrix(1, 0, 0, 1, -354.13043212890625, -207.3912353515625)" style="fill: rgb(51, 51, 51); white-space: pre; color: rgb(51, 51, 51);"/>
</svg>