<svg width="158" height="27" viewBox="0 0 158 27" fill="none" xmlns="http://www.w3.org/2000/svg">
  <path d="M14.76 22.08C22.448 22.08 25.904 18.368 25.904 13.472C25.904 8.64 22.448 5.28 14.76 5.28H9.6V22.08H14.76ZM12.816 7.84H14.76C19.312 7.84 21.44 9.856 21.44 13.472C21.44 17.12 19.344 19.2 14.76 19.2H12.816V7.84Z" fill="#131313"/>
  <path d="M27.4896 0H19.1376V5.28H25.0416V7.552H19.1376V22.08H14.9776V7.552H9.21761V5.28H14.9776V0H27.4896Z" fill="#131313"/>
  <path d="M34.7079 14.176C33.4519 14.176 32.5319 13.28 32.5319 12.096C32.5319 10.912 33.4519 10.016 34.7079 10.016C35.9359 10.016 36.7999 10.912 36.7999 12.096C36.7999 13.28 35.9359 14.176 34.7079 14.176ZM39.6159 22.08V10.016H37.4719V22.08H39.6159ZM37.4719 8.672C36.2559 8.672 35.5199 7.904 35.5199 6.848C35.5199 5.792 36.2559 5.024 37.4719 5.024C38.6879 5.024 39.4239 5.792 39.4239 6.848C39.4239 7.904 38.6879 8.672 37.4719 8.672Z" fill="#131313"/>
  <path d="M43.1553 22.08H45.6633L49.2993 10.4H49.3793L53.0153 22.08H55.5233L59.0993 10.4H57.3313L55.1513 18.176H54.9953L51.6593 10.4H50.7913L47.4753 18.176H47.3393L45.1593 10.4H43.3913L40.0553 18.176H39.8993L37.7553 10.4H35.8873L39.4833 22.08H41.9913L43.1553 22.08Z" fill="#131313"/>
  <path d="M63.2192 5.28H57.7952V22.08H63.2192V18.112H67.0752L69.9872 22.08H75.6992L70.8032 16.416L75.6992 10.752H69.9872L67.0752 14.72H63.2192V5.28Z" fill="#131313"/>
  <path d="M83.8985 22.08C89.4465 22.08 93.3785 18.816 93.3785 14.432C93.3785 10.016 89.4465 6.784 83.8985 6.784C78.3505 6.784 74.4185 10.016 74.4185 14.432C74.4185 18.816 78.3505 22.08 83.8985 22.08ZM83.8985 16.736C81.9585 16.736 81.3345 16.016 81.2545 14.432C81.3345 12.848 81.9585 12.128 83.8985 12.128C85.8385 12.128 86.4625 12.848 86.4625 14.432C86.4625 16.016 85.8385 16.736 83.8985 16.736Z" fill="#131313"/>
  <path d="M94.812 22.08V0H89.268V16.672H87.276V22.08H94.812Z" fill="#131313"/>
  <path d="M109.33 22.08C114.878 22.08 118.81 18.816 118.81 14.432C118.81 10.016 114.878 6.784 109.33 6.784C103.782 6.784 99.85 10.016 99.85 14.432C99.85 18.816 103.782 22.08 109.33 22.08ZM109.33 16.736C107.39 16.736 106.766 16.016 106.686 14.432C106.766 12.848 107.39 12.128 109.33 12.128C111.27 12.128 111.894 12.848 111.894 14.432C111.894 16.016 111.27 16.736 109.33 16.736Z" fill="#131313"/>
  <path d="M125.852 22.08V0H120.308V16.672H118.316V22.08H125.852Z" fill="#131313"/>
  <path d="M139.965 22.08C145.329 22.08 148.993 18.816 148.993 14.432C148.993 10.016 145.329 6.784 139.965 6.784C134.601 6.784 130.937 10.016 130.937 14.432C130.937 18.816 134.601 22.08 139.965 22.08ZM139.965 16.736C138.025 16.736 137.401 16.016 137.321 14.432C137.401 12.848 138.025 12.128 139.965 12.128C141.905 12.128 142.529 12.848 142.529 14.432C142.529 16.016 141.905 16.736 139.965 16.736Z" fill="#131313"/>
</svg>
